<svg xmlns="http://www.w3.org/2000/svg" viewBox="0 0 64 64">
  <defs>
    <style>
      .cls-1 {
        fill: #fff;
        stroke: #707070;
      }

      .cls-2 {
        fill: #f606ae;
      }

      .cls-3 {
        stroke: none;
      }

      .cls-4 {
        fill: none;
      }
    </style>
  </defs>
  <g id="logo_white" transform="translate(-337 -394)">
    <g id="background" class="cls-1" transform="translate(337 394)">
      <rect class="cls-3" width="64" height="64" rx="9"/>
      <rect class="cls-4" x="0.5" y="0.5" width="63" height="63" rx="8.5"/>
    </g>
    <g id="clamber" transform="translate(327.796 401)">
      <path id="XMLID_228_" class="cls-2" d="M301.247,179.564a3.085,3.085,0,1,0-4.181-1.246A3.085,3.085,0,0,0,301.247,179.564Z" transform="translate(-250.739 -156.45)"/>
      <path id="XMLID_227_" class="cls-2" d="M31.689.136a.418.418,0,0,0-.617,0l-7.445,8.15a.418.418,0,0,0,.308.7H38.825a.418.418,0,0,0,.308-.7Z" transform="translate(-4.784)"/>
      <path id="XMLID_216_" class="cls-2" d="M63.317,149.276a.417.417,0,0,0,.268-.738l-3.43-2.872a1.609,1.609,0,0,0,.729-.3,1.646,1.646,0,0,0,.293-2.308l-3.871-5c-.09-.554-.643-4.471-.884-4.92-1.032-1.926-3.652-6.845-3.848-7.15a2.429,2.429,0,0,0-3.246-.85,2.46,2.46,0,0,0-1.238,2.635l-1.213,1.5-2.621-1.646a1.645,1.645,0,1,0-1.75,2.786l3.857,2.422a1.645,1.645,0,0,0,2.154-.358l1.184-1.462,1.373,2.537-1.992,1.2a1.631,1.631,0,0,0-.746,1.022L34.988,124.6v-12.98a.418.418,0,0,0-.418-.418H18.622a.418.418,0,0,0-.418.418v37.242a.418.418,0,0,0,.418.418H21.35a.418.418,0,0,0,.418-.418V127.982h9.655v20.876a.418.418,0,0,0,.418.417h2.73a.418.418,0,0,0,.418-.417v-19.9L59.14,149.179a.417.417,0,0,0,.268.1ZM30.123,123.117h-2.7v-2.705h2.7Zm0-4.35h-2.7v-2.7h2.7Zm-4.349-2.7v2.7H23.068v-2.7Zm-2.705,4.349h2.705v2.705H23.068Zm31.061,19.88-1.984-3.543,1.47-.883.51,3.136a1.64,1.64,0,0,0,.323.743L56.968,143l-2.693-2.255A1.628,1.628,0,0,0,54.129,140.293Z" transform="translate(0 -100.119)"/>
    </g>
  </g>
</svg>
