
<svg viewBox="0 0 500 500">
<g >
	<path  d="M342.39,231.96c15.043-8.135,20.639-26.92,12.504-41.964c-8.144-15.036-26.927-20.631-41.964-12.496   c-15.044,8.134-20.64,26.919-12.497,41.956C308.567,234.5,327.352,240.096,342.39,231.96z"/>
	<path  d="M105.517,1.364C104.723,0.495,103.601,0,102.424,0c-1.177,0-2.3,0.495-3.094,1.364L24.615,83.153   c-1.12,1.226-1.411,2.997-0.741,4.517c0.67,1.52,2.174,2.5,3.835,2.5h149.423c1.661,0,3.165-0.98,3.835-2.5   c0.67-1.519,0.379-3.291-0.74-4.517L105.517,1.364z" />
	<path  d="M470.933,493.328c1.762,0,3.336-1.103,3.939-2.759c0.602-1.657,0.103-3.513-1.249-4.644l-34.421-28.821   c2.575-0.443,5.106-1.297,7.314-3.006c7.199-5.585,8.521-15.955,2.942-23.161l-38.843-50.159   c-0.903-5.561-6.456-44.872-8.868-49.372c-10.355-19.326-36.652-68.692-38.62-71.754c-4.912-10.636-21.118-14.745-32.572-8.532   c-9.742,5.266-14.409,16.118-12.425,26.447l-12.173,15.036L279.65,276.08c-7.71-4.843-17.907-2.523-22.762,5.203   c-4.855,7.721-2.523,17.915,5.203,22.757l38.704,24.311c2.719,1.708,5.757,2.531,8.779,2.531c4.839,0,9.594-2.12,12.836-6.121   l11.886-14.673l13.778,25.461l-19.987,12.005c-3.936,2.36-6.476,6.117-7.482,10.253L186.636,245.653V115.389   c0-2.314-1.876-4.19-4.191-4.19H22.394c-2.314,0-4.19,1.876-4.19,4.19c0,123.462,0,267.618,0,373.749c0,2.314,1.876,4.19,4.19,4.19   h27.381c2.314,0,4.19-1.876,4.19-4.19V279.629h96.896v209.508c0,2.314,1.876,4.19,4.191,4.19h27.392   c2.315,0,4.191-1.876,4.191-4.19V289.423L429.023,492.35c0.754,0.632,1.707,0.978,2.69,0.978H470.933z M137.814,230.808h-27.137   v-27.147h27.137V230.808z M137.814,187.149h-27.137v-27.137h27.137V187.149z M94.165,160.012v27.137H67.018v-27.137H94.165z    M67.018,203.661h27.147v27.147H67.018V203.661z M378.735,403.172l-19.915-35.555l14.754-8.86l5.12,31.468   c0.435,2.716,1.557,5.28,3.24,7.457l25.285,32.645l-27.026-22.631C379.846,406.164,379.54,404.615,378.735,403.172z"/>
</g>
</svg>
