
<svg viewBox="0 0 500 500">
	<path d="M158.928,118.077c2.304,2.155,5.167,3.619,8.26,4.236l38.359,7.616v59.754v4.038l-14.984,59.138   c-0.445,1.767-0.051,3.643,1.068,5.082c1.118,1.44,2.846,2.279,4.655,2.279h9.261v94.751c0,9.301,7.535,16.844,16.846,16.844   c9.309,0,16.844-7.543,16.844-16.844V260.22h16.845v94.751c0,9.301,7.535,16.844,16.845,16.844c9.311,0,16.845-7.543,16.845-16.844   V260.22h9.261c1.81,0,3.537-0.838,4.656-2.279c1.118-1.439,1.513-3.315,1.068-5.082l-14.985-59.138v-4.038v-60.684l41.831-40.812   c1.498-1.464,2.715-3.191,3.57-5.091l25.729-56.67c3.849-8.472,0.098-18.456-8.373-22.306c-8.488-3.825-18.474-0.082-22.291,8.373   l-24.429,53.791l-34.493,33.656c-3.98-1.826-8.375-2.904-13.045-2.904H237.05c-4.261,0-8.322,0.872-12.041,2.402l-46.537-9.237   l-36.14-33.903c-6.812-6.358-17.454-6.021-23.82,0.765c-6.365,6.786-6.02,17.446,0.757,23.812L158.928,118.077z" />
	<path d="M247.659,80.719c22.289,0,40.369-18.07,40.369-40.36C288.028,18.07,269.948,0,247.659,0   c-22.288,0-40.367,18.07-40.367,40.359C207.292,62.649,225.371,80.719,247.659,80.719z" />
	<path d="M189.05,62.122c9.112,0,16.498-7.386,16.498-16.499c0-9.105-7.386-16.491-16.498-16.491   c-7.75,0-19.873,12.485-36.963,4.458c-1.695-0.798-3.703-0.42-4.984,0.937c-1.283,1.357-1.547,3.381-0.658,5.026   C152.152,50.065,164.983,62.122,189.05,62.122z" />
	<path d="M247.659,379.341c-93.895,0-170.024,13.275-170.024,29.651v79.059c0,4.012,3.257,7.27,7.271,7.27h19.675   c4.012,0,7.271-3.258,7.271-7.27v-61.268c31.024,7.196,80.225,11.867,135.809,11.867c55.585,0,104.786-4.671,135.81-11.867v61.268   c0,4.012,3.259,7.27,7.27,7.27h19.676c4.014,0,7.271-3.258,7.271-7.27v-79.059C417.686,392.616,341.555,379.341,247.659,379.341z" />
</svg>
