
<svg viewBox="0 0 500 500">
	<path id="XMLID_54_" d="M345.987,246.935c-6.162,3.722-12.213,8.813-18.456,16.031c-5.84,6.783-16.023,7.444-22.678,1.691   c-6.043-5.205-7.195-13.89-3.022-20.615c-24.321-1.112-44.26-1.297-54.346-1.297c-3.779,0-8.951,0.023-15.194,0.111   c-0.04,1.387-0.21,2.772-0.362,4.166l1.564,1.516l44.904,8.459c11.456,2.158,20.341,10.014,24.426,20.059   c87.087,4.157,139.871,17.514,155.701,26.851c-48.916,28.424-204.328,29.591-261.245,27.143c0.033-0.152,0.09-0.281,0.122-0.436   l6.83-36.228c2.748,2.416,6.028,4.155,9.628,4.834l8.322,1.57l46.322,8.725c11.046,2.086,21.777-5.172,23.879-16.306   c2.087-11.095-5.212-21.784-16.306-23.879c-4.125-0.781-45.074-8.491-48.611-9.159L213.19,246.34   c2.521-16.29-8.233-31.758-24.547-34.837c-15.767-2.987-32.096,7.68-34.762,20.883c-1.492,4.769-15.831,81.962-16.757,86.869   c-0.467,2.466-0.532,4.899-0.403,7.3c-24.49-2.667-76.485-10.078-98.301-21.574c-0.701-0.363-1.377-0.727-1.973-1.073   c11.222-6.612,41.061-15.241,88.408-21.202l6.412-34.047C66.318,255.668,0,270.901,0,303.932   c0,56.087,191.446,61.188,247.485,61.188c41.328,0,247.485-2.949,247.485-61.188C494.971,267.881,415.988,253.025,345.987,246.935z   " />
	<path id="XMLID_53_" d="M200.106,205.856c20.053,3.779,40.765-9.273,44.776-30.565c3.923-20.809-9.756-40.846-30.572-44.769   c-20.811-3.923-40.845,9.765-44.768,30.566C165.537,182.324,180.354,202.127,200.106,205.856z" />
	<path id="XMLID_52_" d="M312.329,250.327c-1.072,1.529-0.854,3.706,0.596,4.954c1.555,1.337,3.884,1.176,5.221-0.388   c22.686-26.213,44.268-29.895,73.384-29.05c0.112,0.009,0.218,0.009,0.331,0.009c4.51,0,8.266-3.577,8.434-8.121   c0.185-4.664-3.448-8.588-8.105-8.766C359.28,207.798,330.608,224.33,312.329,250.327z" />
	<path id="XMLID_51_" d="M284.979,216.144c1.264-0.192,2.135-1.361,1.939-2.635c-3.376-22.679,5.061-34.504,16.122-46.67   c1.981-2.134,1.86-5.486-0.282-7.459c-2.136-1.989-5.478-1.869-7.461,0.266c-15.008,16.242-17.36,37.244-12.914,54.757   C282.666,215.541,283.794,216.32,284.979,216.144z" />
	<path id="XMLID_50_" d="M419.766,145.902c-1.377-6.711-7.935-11.037-14.646-9.651c-46.601,9.586-79.963,42.773-96.444,80.059   c-1.395,3.155,0.217,6.834,3.455,8.023c0.035,0.013,0.07,0.026,0.105,0.039c2.629,0.966,5.577-0.011,7.107-2.355   c21.73-33.298,50.448-57.297,89.554-61.275C416.036,160.041,421.272,153.209,419.766,145.902z" />
</svg>
