
<svg viewBox="0 0 500 500" >
	<path  d="M197.859,76.417c16.732,5.514,34.753-3.579,40.267-20.303c5.514-16.724-3.571-34.752-20.302-40.267   c-16.725-5.513-34.753,3.58-40.267,20.304C172.044,52.883,181.135,70.903,197.859,76.417z" />
	<path d="M477.931,446.022c-8.138-0.333-16.119-0.565-23.949-0.789c-93.779-2.74-155.727-4.543-218.281-153.559   c-3.088-7.357-6.46-14.192-9.964-20.769c8.853-2.458,14.225-11.484,11.966-20.452l-14.192-56.535   c-1.421-5.655-5.63-10.181-11.169-12.007l-28.267-9.318l18.26-55.412c0,0,78,3.87,78.29,3.87c9.002,0,16.517-7.067,16.966-16.168   c0.473-9.375-6.76-17.355-16.143-17.82l-87.824-4.36c-1.793-1.163-3.704-2.192-5.831-2.89c-13.676-4.5-27.51,3.837-30.949,13.386   c-1.718,3.662-27.486,84.486-27.353,86.238c-58.129-26.399-113.648-20.103-114.596-19.979c-9.3,1.162-14.748,8.814-14.748,18.94   C0.149,178.525,0,457.499,0,463.012c0,9.391,7.615,17.007,17.007,17.007c9.391,0,17.007-7.616,17.007-17.007V441.67h71.214v21.341   c0,9.391,7.615,17.007,17.007,17.007c9.392,0,17.006-7.616,17.006-17.007V223.158c24.944,16.757,48.627,42.434,65.104,81.686   c71.023,169.203,153.334,171.603,248.648,174.385c7.705,0.225,24.04,0.79,24.263,0.79c9.085,0,16.617-7.175,16.983-16.327   C494.621,454.309,487.314,446.394,477.931,446.022z M105.229,322.623H34.014v-51.02h71.214V322.623z M34.014,407.657v-51.02h71.214   v51.02H34.014z M105.229,237.59H34.014v-45.116c15.926-0.034,42.649,2.118,71.214,13.153V237.59z M169.751,203.686l23.053,7.597   l4.624,18.42C188.642,219.704,179.343,211.091,169.751,203.686z" />
</svg>
