<?xml version="1.0"?>
<svg xmlns="http://www.w3.org/2000/svg" height="512px" viewBox="0 0 496 496" width="512px"><path d="m312 112h-16c0 35.289062-21.527344 64-48 64v16c35.289062 0 64-35.886719 64-80zm0 0" fill="#006DF0"/><path d="m281.03125 217.023438c36.679688-15.757813 62.96875-56.824219 62.96875-105.023438 0-61.761719-43.0625-112-96-112s-96 50.238281-96 112c0 48.199219 26.289062 89.265625 62.96875 105.023438l-14.402344 36c-.980468 2.464843-.679687 5.257812.808594 7.457031s3.96875 3.519531 6.625 3.519531h8c2.976562 0 5.894531 1.207031 8 3.3125l4.6875 4.6875c3.199219 3.199219 7.105469 5.390625 11.3125 6.679688v9.320312c0 7.296875 2.839844 14.160156 8 19.3125l4.6875 4.6875c2.105469 2.105469 3.3125 5.023438 3.3125 8s-1.207031 5.894531-3.3125 8l-4.6875 4.6875c-5.160156 5.160156-8 12.015625-8 19.3125s2.839844 14.160156 8 19.3125l4.6875 4.6875c2.105469 2.105469 3.3125 5.023438 3.3125 8s-1.207031 5.894531-3.3125 8l-4.6875 4.6875c-5.160156 5.160156-8 12.015625-8 19.3125s2.839844 14.160156 8 19.3125l10.34375 10.34375 11.3125-11.3125-10.34375-10.34375c-2.105469-2.105469-3.3125-5.023438-3.3125-8s1.207031-5.894531 3.3125-8l4.6875-4.6875c5.160156-5.160156 8-12.015625 8-19.3125s-2.839844-14.160156-8-19.3125l-4.6875-4.6875c-2.105469-2.105469-3.3125-5.023438-3.3125-8s1.207031-5.894531 3.3125-8l4.6875-4.6875c5.160156-5.160156 8-12.015625 8-19.3125s-2.839844-14.160156-8-19.3125l-4.6875-4.6875c-2.105469-2.105469-3.3125-5.023438-3.3125-8v-9.320312c4.207031-1.289063 8.113281-3.480469 11.3125-6.679688l4.6875-4.6875c2.105469-2.105469 5.023438-3.3125 8-3.3125h8c2.65625 0 5.136719-1.320312 6.625-3.511719 1.488281-2.191406 1.789062-4.992187.808594-7.457031zm-113.03125-105.023438c0-52.9375 35.886719-96 80-96s80 43.0625 80 96-35.886719 96-80 96-80-43.0625-80-96zm92.6875 144-4.6875 4.6875c-4.207031 4.207031-11.792969 4.207031-16 0l-4.6875-4.6875c-4.273438-4.273438-9.710938-6.953125-15.601562-7.753906l10.503906-26.253906c3.210937.703124 6.472656 1.207031 9.785156 1.527343v16.480469h16v-16.472656c3.3125-.320313 6.574219-.824219 9.785156-1.527344l10.503906 26.257812c-5.890624.789063-11.328124 3.46875-15.601562 7.742188zm0 0" fill="#006DF0"/><path d="m296 80h16v16h-16zm0 0" fill="#006DF0"/><path d="m496 280c0-61.761719-43.0625-112-96-112s-96 50.238281-96 112c0 48.199219 26.289062 89.265625 62.96875 105.023438l-14.402344 36c-.980468 2.464843-.679687 5.257812.808594 7.457031s3.96875 3.519531 6.625 3.519531h8c2.976562 0 5.894531 1.207031 8 3.3125l4.6875 4.6875c3.199219 3.199219 7.105469 5.390625 11.3125 6.679688v6.007812c0 9.433594 3.671875 18.304688 10.34375 24.96875 3.59375 3.589844 5.65625 8.574219 5.65625 13.65625v4.6875h16v-4.6875c0-9.433594-3.671875-18.304688-10.34375-24.96875-3.59375-3.589844-5.65625-8.574219-5.65625-13.65625v-6.007812c4.207031-1.289063 8.113281-3.480469 11.3125-6.679688l4.6875-4.6875c2.105469-2.105469 5.023438-3.3125 8-3.3125h8c2.65625 0 5.136719-1.320312 6.625-3.511719 1.488281-2.191406 1.789062-4.992187.808594-7.457031l-14.402344-36c36.679688-15.765625 62.96875-56.832031 62.96875-105.03125zm-67.710938 136.246094c-5.890624.800781-11.328124 3.480468-15.601562 7.753906l-4.6875 4.6875c-4.207031 4.207031-11.792969 4.207031-16 0l-4.6875-4.6875c-4.273438-4.273438-9.710938-6.953125-15.601562-7.753906l10.503906-26.253906c3.210937.703124 6.472656 1.207031 9.785156 1.527343v16.480469h16v-16.472656c3.3125-.320313 6.574219-.824219 9.785156-1.527344zm-28.289062-40.246094c-44.113281 0-80-43.0625-80-96s35.886719-96 80-96 80 43.0625 80 96-35.886719 96-80 96zm0 0" fill="#006DF0"/><path d="m400 344v16c35.289062 0 64-35.886719 64-80h-16c0 35.289062-21.527344 64-48 64zm0 0" fill="#006DF0"/><path d="m448 248h16v16h-16zm0 0" fill="#006DF0"/><path d="m96 168c-52.9375 0-96 50.238281-96 112 0 48.199219 26.289062 89.265625 62.96875 105.023438l-14.402344 36c-.980468 2.464843-.679687 5.257812.808594 7.457031s3.96875 3.519531 6.625 3.519531h8c2.976562 0 5.894531 1.207031 8 3.3125l4.6875 4.6875c3.199219 3.199219 7.105469 5.390625 11.3125 6.679688v6.007812c0 9.433594 3.671875 18.304688 10.34375 24.96875 3.59375 3.589844 5.65625 8.574219 5.65625 13.65625v4.6875h16v-4.6875c0-9.433594-3.671875-18.304688-10.34375-24.96875-3.59375-3.589844-5.65625-8.574219-5.65625-13.65625v-6.007812c4.207031-1.289063 8.113281-3.480469 11.3125-6.679688l4.6875-4.6875c2.105469-2.105469 5.023438-3.3125 8-3.3125h8c2.65625 0 5.136719-1.320312 6.625-3.511719 1.488281-2.191406 1.789062-4.992187.808594-7.457031l-14.402344-36c36.679688-15.765625 62.96875-56.832031 62.96875-105.03125 0-61.761719-43.0625-112-96-112zm28.289062 248.246094c-5.890624.800781-11.328124 3.480468-15.601562 7.753906l-4.6875 4.6875c-4.207031 4.207031-11.792969 4.207031-16 0l-4.6875-4.6875c-4.273438-4.273438-9.710938-6.953125-15.601562-7.753906l10.503906-26.253906c3.210937.703124 6.472656 1.207031 9.785156 1.527343v16.480469h16v-16.472656c3.3125-.320313 6.574219-.824219 9.785156-1.527344zm-28.289062-40.246094c-44.113281 0-80-43.0625-80-96s35.886719-96 80-96 80 43.0625 80 96-35.886719 96-80 96zm0 0" fill="#006DF0"/><path d="m96 344v16c35.289062 0 64-35.886719 64-80h-16c0 35.289062-21.527344 64-48 64zm0 0" fill="#006DF0"/><path d="m144 248h16v16h-16zm0 0" fill="#006DF0"/></svg>
