
<svg viewBox="0 0 500 500">
<g>
	<path d="M118.56,274.52c17.157,0,31.078-13.913,31.078-31.07s-13.92-31.069-31.078-31.069   s-31.078,13.912-31.078,31.069S101.403,274.52,118.56,274.52z"/>
	<path d="M73.432,260.21c7.017,0,12.703-5.687,12.703-12.703c0-7.009-5.687-12.696-12.703-12.696   c-5.963,0-15.292,9.613-28.449,3.432c-1.299-0.617-2.849-0.324-3.838,0.723c-0.981,1.047-1.192,2.604-0.503,3.869   C45.023,250.93,54.911,260.21,73.432,260.21z"/>
	<path d="M477.779,323.008L432.09,292.92c-4.113-3.213-9.224-5.209-14.854-5.209h-0.007H400.9h-0.008   c-5.493,0-10.49,1.891-14.554,4.965l-27.119-11.35l-8.729-36.812c-1.655-6.968-8.639-11.326-15.609-9.621   c-4.292,1.014-7.351,4.145-8.858,7.958c-33.732-9.833-39.126-34.128-43.595-55.926c-3.408-16.614-5.873-28.117-22.763-41.779   c-0.155-1.371-0.31-2.741-0.471-4.097c-1.997-17.028-3.877-33.113,3.975-47.699c6.83-12.695,14.643-19.615,23.201-20.564   c7.821-0.868,14.926,3.311,19.501,6.895l-5.184,2.75c-1.849,0.974-3.059,2.832-3.211,4.916c-0.155,2.086,0.777,4.098,2.466,5.33   l9.652,7.065c1.679,1.233,3.886,1.517,5.825,0.746c1.938-0.776,3.342-2.49,3.716-4.55l2.392-13.125   c15.438,6.846,36.83-1.008,50.458-19.616c15.146-20.67,14.878-46.613-0.592-57.938c-15.462-11.324-40.27-3.757-55.415,16.914   c-12.289,16.774-14.252,36.886-6.368,49.972c-5.8-4.234-14.326-8.682-24.102-7.626c-11.462,1.258-21.44,9.63-29.658,24.888   c-8.648,16.07-7.146,33.27-5.208,50.004c-3.439-1.598-6.96-2.798-10.603-3.244c-9.872-1.25-18.097,2.15-23.354,5.232   c9.498-12.939,7.925-34.436-5.047-52.144c-15.146-20.671-39.953-28.24-55.415-16.916c-15.47,11.324-15.738,37.27-0.592,57.938   c13.629,18.609,35.021,26.462,50.458,19.615l2.393,13.134c0.373,2.053,1.776,3.766,3.714,4.543c1.939,0.77,4.147,0.486,5.825-0.746   l9.654-7.066c1.687-1.232,2.62-3.244,2.466-5.329c-0.154-2.085-1.363-3.942-3.212-4.916l-3.959-2.094   c4.056-2.011,9.661-3.797,16.055-3.009c4.388,0.543,8.63,2.441,12.768,5.256c2.833,27.226,1.517,52.859-45.566,74.057   c-1.03-3.48-3.367-6.545-6.936-8.168c-6.531-2.953-14.213-0.065-17.174,6.449l-18.788,41.414l-26.56,25.902   c-3.066-1.397-6.449-2.232-10.043-2.232h-0.009h-16.33h-0.008c-3.277,0-6.4,0.665-9.256,1.85l-35.831-7.113l-27.833-26.098   c-5.216-4.891-13.41-4.648-18.326,0.592c-4.899,5.217-4.632,13.426,0.584,18.326l30.542,28.637   c1.769,1.654,3.967,2.791,6.344,3.261l29.528,5.856v49.267l-11.486,45.379c-0.349,1.362-0.041,2.8,0.819,3.911   c0.859,1.104,2.182,1.752,3.585,1.752h7.082v72.943c0,7.164,5.809,12.973,12.972,12.973c7.163,0,12.972-5.809,12.972-12.973   v-72.943h12.963v72.943c0,7.164,5.808,12.973,12.971,12.973c7.164,0,12.972-5.809,12.972-12.973v-72.943h7.114   c1.404,0,2.726-0.648,3.586-1.752c0.86-1.111,1.168-2.549,0.819-3.911l-11.519-45.478l-0.008-49.875l32.206-31.418   c1.151-1.119,2.091-2.449,2.758-3.918l19.679-43.352c50.508-21.448,56.64-49.055,55.14-75.492   c9.483,10.813,10.553,16.572,13.53,31.086c4.552,22.221,10.749,52.186,51.228,63l9.987,42.143c0.948,4.033,3.781,7.365,7.608,8.973   l33.529,14.027v42.246c0,0.018-0.009,0.025-0.009,0.043v127.246c0,7.164,5.809,12.973,12.973,12.973   c7.162,0,12.97-5.809,12.97-12.973v-72.944h12.964v72.944c0,7.164,5.808,12.973,12.973,12.973c7.162,0,12.97-5.809,12.97-12.973   V359.027v-28.873l15.479,10.197l-3.376,33.553c-0.712,7.131,4.487,13.482,11.61,14.205c7.438,0.672,13.507-4.699,14.203-11.609   l4.153-41.364C484.034,330.333,481.811,325.66,477.779,323.008z"/>
	<path d="M409.061,275.145c17.157,0,31.078-13.912,31.078-31.069s-13.921-31.069-31.078-31.069   c-17.159,0-31.078,13.912-31.078,31.069S391.902,275.145,409.061,275.145z"/>
</g>
</svg>
