
<svg viewBox="0 0 500 500">
<g>
	<path  d="M260.448,9.424C258.811,4.018,253.979,0,248.041,0c-7.102,0-12.809,5.655-13.064,12.697   c6.366-2.322,13.142-3.796,20.304-3.796C257.055,8.901,258.716,9.269,260.448,9.424z" />
	<path  d="M182.905,85.742h15.635c-1.679-5.5-2.854-11.214-2.854-17.255c0-3.101,0.455-6.083,0.919-9.064h-23.132   V13.16c0-7.266-5.894-13.16-13.16-13.16c-7.264,0-13.16,5.894-13.16,13.16v41.561c6.77,1.635,13.067,5.122,17.76,10.476   L182.905,85.742z" />
	<path  d="M167.74,401.877l8.002-76.086c0.12-1.114,0.659-2.092,0.882-3.179h-3.152v-61.411h20.398v-26.318h-20.398   v-61.412h15.712l-18.206-4.463c-7.042-1.721-13.288-5.524-18.051-10.975l-9.525-10.881h-57.66v-61.41h17.829   c0.659-8.868,4.626-17.495,11.833-23.808c1.103-0.97,2.363-1.715,3.581-2.512H85.742V13.16C85.742,5.894,79.848,0,72.582,0   c-7.263,0-13.159,5.894-13.159,13.16v469.764c0,7.266,5.896,13.159,13.159,13.159c7.266,0,13.16-5.894,13.16-13.159V436.66h61.411   v46.264c0,7.266,5.896,13.159,13.16,13.159c7.266,0,13.16-5.894,13.16-13.159V436.66h13.194   C174.131,430.201,166.199,416.648,167.74,401.877z M147.152,410.342H85.742v-61.411h61.411V410.342z M147.152,322.612H85.742   v-61.411h61.411V322.612z M147.152,234.883H85.742v-61.412h61.411V234.883z"/>
	<path d="M423.5,0c-7.264,0-13.159,5.894-13.159,13.16v46.263h-61.41V13.16c0-7.266-5.895-13.16-13.16-13.16   c-7.264,0-13.16,5.894-13.16,13.16v46.263h-8.652c0.462,2.982,0.916,5.964,0.916,9.064c0,6.041-1.173,11.755-2.853,17.255h10.589   v60.168l20.39,20.417l32.899,7.144h34.44v20.477c3.804,7.275,5.099,15.508,3.334,23.629c-0.669,3.076-1.894,5.904-3.334,8.584   v8.723h-6.477c-8.275,8.002-20.295,12.071-31.956,9.527l-49.297-10.701v1.174h-5.919v26.318h5.919v12.176l16.732,14.324   c4.379,3.75,7.531,8.404,9.587,13.424v-39.924h61.41v61.411h-59.809c-0.83,3.392-2.063,6.733-3.956,9.869l-23.965,39.745v38.115   h-61.41v-11.514c-6.358-4.824-10.958-11.498-12.911-19.355c-2.253-9.098-0.831-18.529,4.01-26.557l18.274-30.304h-9.372v-7.564   h-5.166l-11.102,23.885l-7.386,70.277c-1.287,12.183-8.704,22.207-18.934,27.449h16.268v46.264c0,7.266,5.895,13.159,13.159,13.159   c7.267,0,13.16-5.894,13.16-13.159V436.66h61.41v46.264c0,7.266,5.896,13.159,13.16,13.159c7.265,0,13.16-5.894,13.16-13.159   V436.66h61.41v46.264c0,7.266,5.896,13.159,13.159,13.159c7.267,0,13.16-5.894,13.16-13.159V13.16C436.66,5.894,430.767,0,423.5,0z    M410.341,147.152h-61.41v-61.41h61.41V147.152z M410.341,410.342h-61.41v-61.411h61.41V410.342z"/>
	<path  d="M227.788,334.195l17.05-36.693h25.017l23.972,20.527l-26.499,43.951   c-5.004,8.292-2.332,19.079,5.971,24.081c8.25,4.978,19.044,2.374,24.081-5.972l34.167-56.673   c4.429-7.341,2.896-16.809-3.614-22.387l-28.788-24.646v-79.497l13.888,13.93c2.392,2.392,5.414,4.044,8.713,4.755l53.925,11.704   c9.346,2.047,18.787-3.873,20.859-13.425c2.057-9.468-3.95-18.814-13.424-20.862l-48.869-10.607   c-4.669-4.686-41.003-41.147-46.066-46.227c-0.102-0.103-0.239-0.13-0.343-0.223c-5.756-5.133-13.177-8.404-21.486-8.404   c-35.648,0,0.54,0-22.12,0c-4.226,0-8.234,0.864-11.943,2.321l-43.386-10.642l-37.164-42.433   c-6.401-7.309-17.495-8.037-24.761-1.646c-7.291,6.393-8.028,17.477-1.645,24.762l40.816,46.596   c2.372,2.717,5.525,4.627,9.02,5.482l36.257,8.895v125.297l-16.681,35.906c-0.821,1.756-1.334,3.632-1.54,5.561l-8.003,76.086   c-1.011,9.639,5.979,18.266,15.617,19.285c10.024,0.96,18.3-6.263,19.286-15.618L227.788,334.195z" />
	<path  d="M255.281,110.526c23.219,0,42.049-18.82,42.049-42.039c0-23.217-18.83-42.04-42.049-42.04   c-23.216,0-42.049,18.823-42.049,42.04C213.232,91.706,232.064,110.526,255.281,110.526z" />
</g>
</svg>
