<svg xmlns="http://www.w3.org/2000/svg" viewBox="0 0 267 52">
  <defs>
    <style>
      .cls-1, .cls-2 {
        fill: #fff;
      }

      .cls-2 {
        font-size: 35px;
        font-family: MysteryQuest, Mystery Quest;
      }

      .cls-3 {
        font-family: SegoeUI, Segoe UI;
      }
    </style>
  </defs>
  <g id="logo_name_white" transform="translate(-264 -618)">
    <g id="clamber" transform="translate(245.796 623)">
      <path id="XMLID_228_" class="cls-1" d="M299.935,177.894a2.2,2.2,0,1,0-2.977-.887A2.2,2.2,0,0,0,299.935,177.894Z" transform="translate(-258.731 -161.437)"/>
      <path id="XMLID_227_" class="cls-1" d="M29.335.1A.3.3,0,0,0,28.9.1L23.6,5.9a.3.3,0,0,0,.22.5h10.6a.3.3,0,0,0,.22-.5Z" transform="translate(-4.937)"/>
      <path id="XMLID_216_" class="cls-1" d="M50.324,138.31a.3.3,0,0,0,.191-.525l-2.442-2.045a1.146,1.146,0,0,0,.519-.213,1.172,1.172,0,0,0,.209-1.643l-2.756-3.559c-.064-.395-.458-3.184-.629-3.5-.735-1.371-2.6-4.873-2.74-5.091a1.73,1.73,0,0,0-2.311-.605A1.751,1.751,0,0,0,39.483,123l-.864,1.067L36.753,122.9a1.171,1.171,0,1,0-1.246,1.984l2.746,1.725a1.171,1.171,0,0,0,1.534-.255l.843-1.041.978,1.806-1.418.852a1.161,1.161,0,0,0-.531.727l-9.5-7.957V111.5a.3.3,0,0,0-.3-.3H18.5a.3.3,0,0,0-.3.3v26.516a.3.3,0,0,0,.3.3h1.943a.3.3,0,0,0,.3-.3V123.149h6.874v14.864a.3.3,0,0,0,.3.3h1.943a.3.3,0,0,0,.3-.3V123.843l17.2,14.4a.3.3,0,0,0,.191.069ZM26.69,119.685H24.765v-1.926H26.69Zm0-3.1H24.765v-1.925H26.69Zm-3.1-1.925v1.925H21.667v-1.925Zm-1.926,3.1h1.926v1.926H21.667Zm22.115,14.155-1.413-2.523,1.047-.629.363,2.233a1.168,1.168,0,0,0,.23.529L45.8,133.84l-1.917-1.606A1.159,1.159,0,0,0,43.783,131.914Z" transform="translate(0 -103.31)"/>
    </g>
    <text id="Căsu_a_Favorită" data-name="Căsuța Favorită" class="cls-2" transform="translate(417 656)"><tspan x="-113.374" y="0">C</tspan><tspan class="cls-3" y="0">ă</tspan><tspan y="0">su</tspan><tspan class="cls-3" y="0">ț</tspan><tspan y="0">a Favorit</tspan><tspan class="cls-3" y="0">ă</tspan></text>
  </g>
</svg>
