<svg xmlns="http://www.w3.org/2000/svg" viewBox="0 0 979 601">
  <defs>
    <style>
      .cls-1, .cls-3 {
        fill: #006df0;
      }

      .cls-1 {
        stroke: #707070;
      }

      .cls-2, .cls-4 {
        fill: #fff;
      }

      .cls-4 {
        font-size: 86px;
      }

      .cls-4, .cls-6 {
        font-family: Montserrat-SemiBoldItalic, Montserrat;
        font-weight: 600;
        font-style: italic;
      }

      .cls-5 {
        fill: #ff09b5;
      }

      .cls-6 {
        fill: #bfb8bd;
        font-size: 32px;
      }

      .cls-7 {
        stroke: none;
      }

      .cls-8 {
        fill: none;
      }
    </style>
  </defs>
  <g id="CasaFavorita" transform="translate(-293 -70)">
    <g id="Rectangle_5" data-name="Rectangle 5" class="cls-1" transform="translate(293 70)">
      <rect class="cls-7" width="979" height="601" rx="91"/>
      <rect class="cls-8" x="0.5" y="0.5" width="978" height="600" rx="90.5"/>
    </g>
    <path id="home-solid" class="cls-2" d="M344.979,230.526v101.3a16.925,16.925,0,0,1-16.965,16.965h-82a8.508,8.508,0,0,1-8.483-8.483V261.134a8.508,8.508,0,0,0-8.483-8.483h-50.9a8.508,8.508,0,0,0-8.483,8.483v79.171a8.508,8.508,0,0,1-8.483,8.483h-82a16.925,16.925,0,0,1-16.965-16.965v-101.3a8.489,8.489,0,0,1,3.11-6.574l132.9-109.426a8.615,8.615,0,0,1,10.815,0l132.9,109.426A8.653,8.653,0,0,1,344.979,230.526Zm59.1-43.049-59.1-48.7v-97.9a8.508,8.508,0,0,0-8.483-8.483H296.91a8.508,8.508,0,0,0-8.483,8.483v51.32l-63.267-52.1a33.9,33.9,0,0,0-43.12,0L3.128,187.477A8.506,8.506,0,0,0,2,199.423l18.026,21.914a8.506,8.506,0,0,0,11.946,1.131L198.229,85.543a8.615,8.615,0,0,1,10.815,0L375.3,222.468a8.506,8.506,0,0,0,11.946-1.131l18.026-21.914A8.507,8.507,0,0,0,404.075,187.477Z" transform="translate(839.941 282.683)"/>
    <g id="Group_13" data-name="Group 13" transform="translate(-240 -221)">
      <path id="Path_28" data-name="Path 28" class="cls-2" d="M40,0A40,40,0,1,1,0,40,40,40,0,0,1,40,0Z" transform="translate(938 653)"/>
      <g id="guitar" transform="translate(953 668)">
        <path id="Path_1" data-name="Path 1" class="cls-3" d="M1.388,17.267a2.908,2.908,0,0,0,1.269.275,3.829,3.829,0,0,0,.816-.091,2.643,2.643,0,0,0,2.3-3.138h0L3.929,5.846l7.764-1.694,1.369,6.274a3.666,3.666,0,0,0-1.46.044c-1.716.374-2.655,1.612-2.335,3.08a2.508,2.508,0,0,0,2.6,1.984,3.8,3.8,0,0,0,.806-.09,2.643,2.643,0,0,0,2.3-3.138h0L12.511,1.024A1.3,1.3,0,0,0,10.962.031L2.877,1.795a1.3,1.3,0,0,0-.993,1.546l1.983,9.092a3.665,3.665,0,0,0-1.46.044,3.333,3.333,0,0,0-1.82.989,2.33,2.33,0,0,0-.515,2.09,2.419,2.419,0,0,0,1.316,1.71Zm10.968-3.253c-.333.072-1.438.232-1.657-.775-.194-.89.678-1.219,1.216-1.336a2.686,2.686,0,0,1,.563-.067.965.965,0,0,1,1.062.783h0c.22,1.006-.851,1.322-1.184,1.395ZM11.114,1.5l.267,1.224L3.617,4.415,3.35,3.191ZM1.686,14.435a1.929,1.929,0,0,1,1.033-.527,2.686,2.686,0,0,1,.563-.067.965.965,0,0,1,1.062.783h0c.219,1.007-.851,1.322-1.184,1.395a1.79,1.79,0,0,1-1.136-.072.944.944,0,0,1-.521-.7.855.855,0,0,1,.182-.809Zm0,0" transform="translate(-0.009 -0.001)"/>
        <path id="Path_2" data-name="Path 2" class="cls-3" d="M339.4,340.369a1.292,1.292,0,0,0-.719-.688l-7.714-3a1.3,1.3,0,0,0-1.683.741l-3.372,8.68a3.623,3.623,0,0,0-1.239-.777,3.335,3.335,0,0,0-2.063-.181,2.33,2.33,0,0,0-1.584,1.458,2.418,2.418,0,0,0,.152,2.152,3.2,3.2,0,0,0,1.636,1.305,3.542,3.542,0,0,0,1.281.253,2.45,2.45,0,0,0,2.372-1.6l3.138-8.077,7.407,2.878-2.328,5.993a3.623,3.623,0,0,0-1.239-.776c-1.637-.636-3.1-.123-3.647,1.277a2.416,2.416,0,0,0,.153,2.152,3.2,3.2,0,0,0,1.636,1.305,3.551,3.551,0,0,0,1.281.253,2.449,2.449,0,0,0,2.372-1.6l4.182-10.764A1.292,1.292,0,0,0,339.4,340.369ZM323.347,348.7a1.787,1.787,0,0,1-.907-.688.946.946,0,0,1-.046-.874.856.856,0,0,1,.6-.574,1.269,1.269,0,0,1,.33-.04,2.309,2.309,0,0,1,.822.172,1.857,1.857,0,0,1,.918.667.869.869,0,0,1,.042.828C324.732,349.149,323.665,348.82,323.347,348.7Zm6.791-9.42.454-1.168L338,340.987l-.454,1.168Zm1.982,12.829a1.786,1.786,0,0,1-.907-.688.945.945,0,0,1-.047-.873.917.917,0,0,1,.927-.619,2.369,2.369,0,0,1,.824.177,1.857,1.857,0,0,1,.918.667.868.868,0,0,1,.042.828C333.5,352.558,332.439,352.229,332.12,352.106Zm0,0" transform="translate(-289.514 -303.724)"/>
        <path id="Path_3" data-name="Path 3" class="cls-3" d="M21.512,230.121c-4.5,3.273-11.358,2.2-15.943-2.491a13.916,13.916,0,0,1-4.1-9.855,9.965,9.965,0,0,1,3.012-7.138,9.762,9.762,0,0,1,4.957-2.478,11.859,11.859,0,0,0,6.607-3.6.732.732,0,1,0-1.074-1,10.407,10.407,0,0,1-5.8,3.158,11.222,11.222,0,0,0-5.7,2.854A11.417,11.417,0,0,0,0,217.747a15.387,15.387,0,0,0,4.517,10.907,15.519,15.519,0,0,0,10.94,4.816,11.66,11.66,0,0,0,6.911-2.164.732.732,0,1,0-.861-1.185Zm0,0" transform="translate(-0.001 -183.47)"/>
        <path id="Path_4" data-name="Path 4" class="cls-3" d="M165.432,31.928a7.169,7.169,0,0,0,2.115-5.7,11.689,11.689,0,0,0-1.921-5.4l4.674-4.674a.732.732,0,1,0-1.035-1.036L156.3,28.073a5.641,5.641,0,0,0-3.107-3.107L168.452,9.71l3.108,3.108-.087.087a.732.732,0,0,0,1.036,1.036l.185-.185a1.2,1.2,0,0,0,.362.056h.038a1.216,1.216,0,0,0,.872-.411l.777-.883.833.834a.732.732,0,0,0,1.036-1.036l-.9-.9,1.223-1.389.871.871a.733.733,0,0,0,1.036-1.036l-.937-.936,1.214-1.379.631.631a.733.733,0,1,0,1.036-1.036l-.7-.7.879-1a1.216,1.216,0,0,0-.052-1.66L177.492.361a1.216,1.216,0,0,0-1.66-.053l-1,.879-.7-.7A.732.732,0,1,0,173.1,1.527l.631.631-1.378,1.213-.945-.945a.732.732,0,0,0-1.036,1.036l.879.879-1.39,1.224-.9-.9A.732.732,0,1,0,167.928,5.7l.834.834-.883.777a1.208,1.208,0,0,0-.359,1.258l-7.065,7.066c-4.118-2.646-8.264-2.662-10.926,0a9.681,9.681,0,0,0-1.6,2.04.732.732,0,1,0,1.271.727,8.271,8.271,0,0,1,1.368-1.732c2.911-2.912,6.9-1.133,8.826.028l-7.875,7.876c-.139-.01-.278-.017-.419-.017a5.616,5.616,0,1,0,5.615,5.616c0-.141-.007-.28-.017-.419l7.866-7.866c1.149,1.936,2.882,5.957-.164,9a7.145,7.145,0,0,1-1.628,1.22,12,12,0,0,0-6.2,8.442,9.789,9.789,0,0,1-1.733,4.064.732.732,0,1,0,1.18.868,11.241,11.241,0,0,0,1.994-4.666,10.556,10.556,0,0,1,5.465-7.423,8.616,8.616,0,0,0,1.961-1.469ZM176.623,1.563l3.091,3.091-6.671,7.576-4-4ZM154.03,33.11a4.151,4.151,0,1,1,1.215-2.935A4.123,4.123,0,0,1,154.03,33.11Zm0,0" transform="translate(-131.273 -0.006)"/>
        <path id="Path_5" data-name="Path 5" class="cls-3" d="M56.955,327.953a2.538,2.538,0,0,0,0,3.585l7.479,7.479a2.535,2.535,0,0,0,3.585-3.586l-7.479-7.479a2.535,2.535,0,0,0-3.585,0Zm10.028,8.515a1.07,1.07,0,0,1-1.514,1.514L57.991,330.5a1.07,1.07,0,1,1,1.514-1.514Zm0,0" transform="translate(-50.724 -295.256)"/>
        <path id="Path_6" data-name="Path 6" class="cls-3" d="M355.789,130.364a.732.732,0,0,0,.518-1.25l-1.562-1.563a.733.733,0,0,0-1.036,1.036l1.563,1.563A.731.731,0,0,0,355.789,130.364Zm0,0" transform="translate(-318.973 -114.902)"/>
        <path id="Path_7" data-name="Path 7" class="cls-3" d="M333.625,152.532a.732.732,0,0,0,.518-1.25l-1.562-1.563a.732.732,0,1,0-1.036,1.036l1.563,1.563A.73.73,0,0,0,333.625,152.532Zm0,0" transform="translate(-298.973 -134.905)"/>
        <path id="Path_8" data-name="Path 8" class="cls-3" d="M311.457,174.7a.732.732,0,0,0,.518-1.25l-1.562-1.563a.732.732,0,1,0-1.036,1.036l1.563,1.563A.73.73,0,0,0,311.457,174.7Zm0,0" transform="translate(-278.97 -154.905)"/>
        <path id="Path_9" data-name="Path 9" class="cls-3" d="M289.293,196.866a.732.732,0,0,0,.518-1.25l-1.562-1.562a.732.732,0,0,0-1.036,1.036l1.563,1.563A.73.73,0,0,0,289.293,196.866Zm0,0" transform="translate(-258.971 -174.909)"/>
        <path id="Path_10" data-name="Path 10" class="cls-3" d="M265.044,216.22a.733.733,0,0,0,0,1.036l1.563,1.563a.732.732,0,0,0,1.036-1.036l-1.562-1.563A.732.732,0,0,0,265.044,216.22Zm0,0" transform="translate(-238.968 -194.911)"/>
        <path id="Path_11" data-name="Path 11" class="cls-3" d="M406.068,74.56a.732.732,0,1,0,0,1.036A.732.732,0,0,0,406.068,74.56Zm0,0" transform="translate(-365.285 -67.085)"/>
        <path id="Path_12" data-name="Path 12" class="cls-3" d="M424.056,92.392a.732.732,0,1,0,0,1.036A.733.733,0,0,0,424.056,92.392Zm0,0" transform="translate(-381.516 -83.176)"/>
        <path id="Path_13" data-name="Path 13" class="cls-3" d="M428.577,52.017a.732.732,0,1,0,0,1.036A.732.732,0,0,0,428.577,52.017Zm0,0" transform="translate(-385.595 -46.744)"/>
        <path id="Path_14" data-name="Path 14" class="cls-3" d="M446.577,69.869a.732.732,0,1,0,0,1.036A.732.732,0,0,0,446.577,69.869Zm0,0" transform="translate(-401.837 -62.852)"/>
        <path id="Path_15" data-name="Path 15" class="cls-3" d="M451.1,29.5a.732.732,0,1,0,0,1.036A.732.732,0,0,0,451.1,29.5Zm0,0" transform="translate(-405.915 -26.424)"/>
        <path id="Path_16" data-name="Path 16" class="cls-3" d="M469.093,47.345a.732.732,0,1,0,0,1.036A.732.732,0,0,0,469.093,47.345Zm0,0" transform="translate(-422.154 -42.528)"/>
      </g>
    </g>
    <g id="Group_14" data-name="Group 14" transform="translate(-567 -221)">
      <circle id="Ellipse_1" data-name="Ellipse 1" class="cls-2" cx="40" cy="40" r="40" transform="translate(1102 653)"/>
      <g id="meeting" transform="translate(1117 668)">
        <g id="Group_2" data-name="Group 2" transform="translate(0 7.5)">
          <g id="Group_1" data-name="Group 1">
            <path id="Path_17" data-name="Path 17" class="cls-3" d="M50.5,82.067a5.831,5.831,0,1,0-7.173.654A4.165,4.165,0,0,0,41.5,86.167V92H38.167V87.833a5.839,5.839,0,0,0-5.142-5.788,5.833,5.833,0,1,0-8.05,0,5.839,5.839,0,0,0-5.142,5.788V92H16.5V86.167a4.165,4.165,0,0,0-1.827-3.445A5.836,5.836,0,1,0,7.5,82.067a4.163,4.163,0,0,0-3.5,4.1v12.5a4.174,4.174,0,0,0,3.333,4.083v12.584H9v-12.5h7.5V114.5a.834.834,0,0,0,.833.833h5a.834.834,0,0,0,.833-.833V101.167h5v12.5H24.833v1.667h8.333v-1.667H29.833v-12.5h5V114.5a.834.834,0,0,0,.833.833h5a.834.834,0,0,0,.833-.833V102.833H49v12.5h1.667V102.749A4.174,4.174,0,0,0,54,98.667v-12.5A4.163,4.163,0,0,0,50.5,82.067Zm-8.167-4.234A4.167,4.167,0,1,1,46.5,82,4.171,4.171,0,0,1,42.333,77.833Zm-17.5,0A4.167,4.167,0,1,1,29,82,4.171,4.171,0,0,1,24.833,77.833ZM30.3,83.667,29,87.127l-1.3-3.46Zm-8.8,4.167a4.171,4.171,0,0,1,4.167-4.167h.256l2.3,6.126a.833.833,0,0,0,1.561,0l2.3-6.126h.256A4.171,4.171,0,0,1,36.5,87.833V92H33.167a.834.834,0,0,0-.833.833v3.333H25.667V92.833A.834.834,0,0,0,24.833,92H21.5Zm-14.167-10A4.167,4.167,0,1,1,11.5,82,4.171,4.171,0,0,1,7.333,77.833ZM21.5,113.667H18.167V102a.834.834,0,0,0-.833-.833H8.167a2.5,2.5,0,0,1-2.5-2.5v-12.5a2.5,2.5,0,0,1,2.5-2.5h4.167a2.5,2.5,0,0,1,2.5,2.5v6.667a.834.834,0,0,0,.833.833H24v2.5H12.333v-7.5H10.667V97a.834.834,0,0,0,.833.833H19a2.5,2.5,0,0,1,2.5,2.5ZM34.927,99.5H23.073a4.161,4.161,0,0,0-.742-1.667H35.668A4.161,4.161,0,0,0,34.927,99.5Zm17.407-.833a2.5,2.5,0,0,1-2.5,2.5H40.667a.834.834,0,0,0-.833.833v11.667H36.5V100.333a2.5,2.5,0,0,1,2.5-2.5h7.5A.834.834,0,0,0,47.333,97V88.667H45.667v7.5H34v-2.5h8.333a.834.834,0,0,0,.833-.833V86.167a2.5,2.5,0,0,1,2.5-2.5h4.167a2.5,2.5,0,0,1,2.5,2.5Z" transform="translate(-4 -72)"/>
          </g>
        </g>
        <g id="Group_4" data-name="Group 4" transform="translate(24.167 27.5)">
          <g id="Group_3" data-name="Group 3">
            <rect id="Rectangle_1" data-name="Rectangle 1" class="cls-3" width="1.667" height="1.667"/>
          </g>
        </g>
        <g id="Group_6" data-name="Group 6" transform="translate(8.333)">
          <g id="Group_5" data-name="Group 5">
            <path id="Path_18" data-name="Path 18" class="cls-3" d="M96.5,0H84.833A.834.834,0,0,0,84,.833V5a.834.834,0,0,0,.833.833h3.333V7.5a.833.833,0,0,0,1.333.667l3.111-2.333H96.5A.834.834,0,0,0,97.333,5V.833A.834.834,0,0,0,96.5,0Zm-.833,4.167H92.333a.833.833,0,0,0-.5.167l-2,1.5V5A.834.834,0,0,0,89,4.167H85.667v-2.5h10Z" transform="translate(-84)"/>
          </g>
        </g>
        <g id="Group_8" data-name="Group 8" transform="translate(29.167 2.5)">
          <g id="Group_7" data-name="Group 7">
            <rect id="Rectangle_2" data-name="Rectangle 2" class="cls-3" width="1.667" height="1.667"/>
          </g>
        </g>
        <g id="Group_10" data-name="Group 10" transform="translate(32.5 2.5)">
          <g id="Group_9" data-name="Group 9">
            <rect id="Rectangle_3" data-name="Rectangle 3" class="cls-3" width="1.667" height="1.667"/>
          </g>
        </g>
        <g id="Group_12" data-name="Group 12" transform="translate(35.833 2.5)">
          <g id="Group_11" data-name="Group 11">
            <rect id="Rectangle_4" data-name="Rectangle 4" class="cls-3" width="1.667" height="1.667"/>
          </g>
        </g>
      </g>
    </g>
    <g id="Group_15" data-name="Group 15" transform="translate(-881 -228)">
      <circle id="Ellipse_1-2" data-name="Ellipse 1" class="cls-2" cx="40" cy="40" r="40" transform="translate(1253 660)"/>
      <g id="balloons_2_" data-name="balloons (2)" transform="translate(1268 675)">
        <path id="Path_19" data-name="Path 19" class="cls-3" d="M254.452,112h-1.613c0,3.557-2.17,6.452-4.839,6.452v1.613C251.557,120.065,254.452,116.447,254.452,112Zm0,0" transform="translate(-223 -100.71)"/>
        <path id="Path_20" data-name="Path 20" class="cls-3" d="M165.007,21.877c3.7-1.588,6.348-5.728,6.348-10.587,0-6.226-4.341-11.29-9.677-11.29S152,5.064,152,11.29c0,4.859,2.65,9,6.348,10.587L156.9,25.506a.808.808,0,0,0,.749,1.107h.806a1.149,1.149,0,0,1,.806.334l.473.473a2.729,2.729,0,0,0,1.14.673v.94a2.733,2.733,0,0,0,.806,1.947l.473.473a1.141,1.141,0,0,1,0,1.613l-.473.473a2.753,2.753,0,0,0,0,3.894l.473.473a1.141,1.141,0,0,1,0,1.613l-.473.473a2.753,2.753,0,0,0,0,3.894l1.043,1.043,1.14-1.14-1.043-1.043a1.141,1.141,0,0,1,0-1.613l.473-.473a2.753,2.753,0,0,0,0-3.894l-.473-.473a1.141,1.141,0,0,1,0-1.613l.473-.473a2.753,2.753,0,0,0,0-3.894l-.473-.473a1.149,1.149,0,0,1-.334-.806v-.94a2.729,2.729,0,0,0,1.14-.673l.473-.473a1.149,1.149,0,0,1,.806-.334h.806a.807.807,0,0,0,.749-1.106ZM153.613,11.29c0-5.336,3.618-9.677,8.065-9.677s8.064,4.341,8.064,9.677-3.618,9.677-8.064,9.677-8.065-4.341-8.065-9.677Zm9.344,14.516-.473.473a1.181,1.181,0,0,1-1.613,0l-.473-.473a2.736,2.736,0,0,0-1.573-.782l1.059-2.647a8.375,8.375,0,0,0,.986.154v1.661h1.613V22.533a8.374,8.374,0,0,0,.986-.154l1.059,2.647a2.727,2.727,0,0,0-1.573.78Zm0,0" transform="translate(-136.677 0)"/>
        <path id="Path_21" data-name="Path 21" class="cls-3" d="M296,80h1.613v1.613H296Zm0,0" transform="translate(-266.161 -71.935)"/>
        <path id="Path_22" data-name="Path 22" class="cls-3" d="M323.355,179.29c0-6.226-4.341-11.29-9.677-11.29S304,173.064,304,179.29c0,4.859,2.65,9,6.348,10.587l-1.452,3.629a.808.808,0,0,0,.749,1.107h.806a1.149,1.149,0,0,1,.806.334l.472.473a2.73,2.73,0,0,0,1.14.673v.606a3.534,3.534,0,0,0,1.043,2.517,1.96,1.96,0,0,1,.57,1.377v.473H316.1v-.473a3.534,3.534,0,0,0-1.043-2.517,1.96,1.96,0,0,1-.57-1.377v-.606a2.729,2.729,0,0,0,1.14-.673l.473-.473a1.149,1.149,0,0,1,.806-.334h.806a.807.807,0,0,0,.749-1.106l-1.452-3.629c3.7-1.589,6.348-5.729,6.348-10.588Zm-6.826,13.735a2.735,2.735,0,0,0-1.573.782l-.473.473a1.181,1.181,0,0,1-1.613,0l-.473-.473a2.735,2.735,0,0,0-1.573-.782l1.059-2.647a8.377,8.377,0,0,0,.986.154v1.661h1.613v-1.661a8.363,8.363,0,0,0,.986-.154Zm-2.852-4.057c-4.447,0-8.065-4.341-8.065-9.677s3.618-9.677,8.065-9.677,8.064,4.341,8.064,9.677S318.124,188.968,313.677,188.968Zm0,0" transform="translate(-273.355 -151.065)"/>
        <path id="Path_23" data-name="Path 23" class="cls-3" d="M400,286.452v1.613c3.557,0,6.452-3.618,6.452-8.065h-1.613C404.839,283.557,402.669,286.452,400,286.452Zm0,0" transform="translate(-359.677 -251.774)"/>
        <path id="Path_24" data-name="Path 24" class="cls-3" d="M448,248h1.613v1.613H448Zm0,0" transform="translate(-402.839 -223)"/>
        <path id="Path_25" data-name="Path 25" class="cls-3" d="M9.677,168C4.341,168,0,173.064,0,179.29c0,4.859,2.65,9,6.348,10.587L4.9,193.506a.808.808,0,0,0,.749,1.107h.806a1.149,1.149,0,0,1,.806.334l.473.473a2.729,2.729,0,0,0,1.14.673v.606a3.534,3.534,0,0,0,1.043,2.517,1.96,1.96,0,0,1,.57,1.377v.473H12.1v-.473a3.534,3.534,0,0,0-1.043-2.517,1.96,1.96,0,0,1-.57-1.377v-.606a2.729,2.729,0,0,0,1.14-.673l.473-.473a1.149,1.149,0,0,1,.806-.334h.806a.807.807,0,0,0,.749-1.106l-1.452-3.629c3.7-1.589,6.348-5.729,6.348-10.588,0-6.226-4.341-11.29-9.677-11.29Zm2.852,25.025a2.736,2.736,0,0,0-1.573.782l-.473.473a1.181,1.181,0,0,1-1.613,0l-.473-.473a2.735,2.735,0,0,0-1.573-.782l1.059-2.647a8.39,8.39,0,0,0,.986.154v1.661h1.613v-1.661a8.384,8.384,0,0,0,.986-.154Zm-2.852-4.057c-4.447,0-8.065-4.341-8.065-9.677s3.618-9.677,8.065-9.677,8.065,4.341,8.065,9.677S14.124,188.968,9.677,188.968Zm0,0" transform="translate(0 -151.064)"/>
        <path id="Path_26" data-name="Path 26" class="cls-3" d="M96,286.452v1.613c3.557,0,6.452-3.618,6.452-8.065h-1.613C100.839,283.557,98.669,286.452,96,286.452Zm0,0" transform="translate(-86.323 -251.774)"/>
        <path id="Path_27" data-name="Path 27" class="cls-3" d="M144,248h1.613v1.613H144Zm0,0" transform="translate(-129.484 -223)"/>
      </g>
    </g>
    <g id="Group_18" data-name="Group 18" transform="translate(-656 -163)">
      <circle id="Ellipse_1-3" data-name="Ellipse 1" class="cls-2" cx="40" cy="40" r="40" transform="translate(1028 713)"/>
      <g id="jumping" transform="translate(973.365 728)">
        <path id="XMLID_267_" class="cls-3" d="M118.494,14.275a1.71,1.71,0,0,0,.834.428l3.872.769v6.439l-1.513,5.97a.6.6,0,0,0,.578.743h.935v9.565a1.7,1.7,0,0,0,3.4,0V28.624h1.7v9.565a1.7,1.7,0,0,0,3.4,0V28.624h.935a.6.6,0,0,0,.578-.743l-1.513-5.97V15.378l4.223-4.12a1.689,1.689,0,0,0,.36-.514l2.6-5.721a1.7,1.7,0,1,0-3.1-1.406l-2.466,5.43-3.482,3.4a3.146,3.146,0,0,0-1.317-.293H126.38a3.187,3.187,0,0,0-1.215.242l-4.7-.932-3.648-3.422a1.7,1.7,0,0,0-2.328,2.481Z" transform="translate(-32.652 -2.356)"/>
        <path id="XMLID_266_" class="cls-3" d="M211.367,8.148a4.074,4.074,0,1,0-4.075-4.074A4.075,4.075,0,0,0,211.367,8.148Z" transform="translate(-116.569)"/>
        <path id="XMLID_265_" class="cls-3" d="M150.276,32.462a1.665,1.665,0,1,0,0-3.33c-.782,0-2.006,1.26-3.731.45a.436.436,0,0,0-.57.6A4.6,4.6,0,0,0,150.276,32.462Z" transform="translate(-61.395 -26.191)"/>
        <path id="XMLID_264_" class="cls-3" d="M94.8,379.341c-9.478,0-17.163,1.34-17.163,2.993v7.981a.734.734,0,0,0,.734.734h1.986a.734.734,0,0,0,.734-.734V384.13a66.22,66.22,0,0,0,13.709,1.2,66.22,66.22,0,0,0,13.709-1.2v6.185a.734.734,0,0,0,.734.734h1.986a.734.734,0,0,0,.734-.734v-7.981C111.961,380.681,104.276,379.341,94.8,379.341Z" transform="translate(0 -341.049)"/>
      </g>
    </g>
    <g id="Group_17" data-name="Group 17" transform="translate(-694 -273)">
      <circle id="Ellipse_1-4" data-name="Ellipse 1" class="cls-2" cx="40" cy="40" r="40" transform="translate(1229 586)"/>
      <g id="clamber" transform="translate(1227.796 601)">
        <path id="XMLID_228_" class="cls-3" d="M301.325,179.663a3.138,3.138,0,1,0-4.253-1.267A3.138,3.138,0,0,0,301.325,179.663Z" transform="translate(-250.263 -156.153)"/>
        <path id="XMLID_227_" class="cls-3" d="M31.829.138a.425.425,0,0,0-.627,0l-7.573,8.29a.425.425,0,0,0,.314.711H39.087a.425.425,0,0,0,.314-.711Z" transform="translate(-4.775)"/>
        <path id="XMLID_216_" class="cls-3" d="M64.089,149.929a.425.425,0,0,0,.273-.75l-3.489-2.921a1.637,1.637,0,0,0,.741-.3,1.674,1.674,0,0,0,.3-2.347l-3.937-5.084c-.092-.564-.654-4.548-.9-5-1.05-1.959-3.715-6.962-3.914-7.272a2.471,2.471,0,0,0-3.3-.865,2.5,2.5,0,0,0-1.259,2.68l-1.234,1.524L44.7,127.91a1.673,1.673,0,1,0-1.78,2.834l3.923,2.464a1.673,1.673,0,0,0,2.191-.364l1.2-1.487,1.4,2.581-2.026,1.217a1.659,1.659,0,0,0-.758,1.039L35.275,124.826v-13.2a.425.425,0,0,0-.425-.425H18.629a.425.425,0,0,0-.425.425V149.5a.425.425,0,0,0,.425.425H21.4a.425.425,0,0,0,.425-.425V128.27h9.821V149.5a.425.425,0,0,0,.425.425H34.85a.425.425,0,0,0,.425-.425V129.262L59.842,149.83a.424.424,0,0,0,.273.1ZM30.327,123.322h-2.75V120.57h2.75Zm0-4.425h-2.75v-2.75h2.75Zm-4.424-2.75v2.75H23.151v-2.75Zm-2.751,4.424H25.9v2.751H23.151Zm31.593,20.221-2.018-3.6,1.5-.9.519,3.189a1.669,1.669,0,0,0,.328.756l2.563,3.309-2.739-2.294A1.656,1.656,0,0,0,54.745,140.791Z" transform="translate(0 -99.929)"/>
      </g>
    </g>
    <g id="Group_16" data-name="Group 16" transform="translate(-666 -273)">
      <circle id="Ellipse_1-5" data-name="Ellipse 1" class="cls-2" cx="40" cy="40" r="40" transform="translate(1038 586)"/>
      <g id="climbing" transform="translate(999.577 601)">
        <path id="XMLID_18_" class="cls-3" d="M237.544.95a1.309,1.309,0,0,0-2.567.33A5.947,5.947,0,0,1,237.023.9C237.2.9,237.37.934,237.544.95Z" transform="translate(-157.86)"/>
        <path id="XMLID_17_" class="cls-3" d="M150.756,8.642h1.576a5.922,5.922,0,0,1-.288-1.739,5.893,5.893,0,0,1,.093-.914h-2.331V1.326a1.326,1.326,0,0,0-2.653,0V5.515a3.435,3.435,0,0,1,1.79,1.056Z" transform="translate(-78.888 0)"/>
        <path id="XMLID_12_" class="cls-3" d="M70.34,40.505l.807-7.669c.012-.112.066-.211.089-.32h-.318v-6.19h2.056V23.674H70.918v-6.19H72.5l-1.835-.45a3.513,3.513,0,0,1-1.819-1.106l-.96-1.1H62.076V8.642h1.8a3.523,3.523,0,0,1,1.193-2.4,3.1,3.1,0,0,1,.361-.253H62.076V1.326a1.326,1.326,0,1,0-2.653,0V48.674a1.326,1.326,0,0,0,2.653,0V44.011h6.19v4.663a1.326,1.326,0,0,0,2.653,0V44.011h1.33A3.533,3.533,0,0,1,70.34,40.505Zm-2.075.853H62.076v-6.19h6.19v6.19Zm0-8.842H62.076v-6.19h6.19v6.19Zm0-8.842H62.076v-6.19h6.19v6.19Z" transform="translate(0 0)"/>
        <path id="XMLID_3_" class="cls-3" d="M239.263,0a1.327,1.327,0,0,0-1.326,1.326V5.989h-6.189V1.326a1.326,1.326,0,1,0-2.653,0V5.989h-.872a5.922,5.922,0,0,1,.092.914,5.919,5.919,0,0,1-.288,1.739h1.067v6.064l2.055,2.058,3.316.72h3.471v2.064a3.5,3.5,0,0,1,.336,2.382,3.321,3.321,0,0,1-.336.865v.879h-.653a3.583,3.583,0,0,1-3.221.96l-4.969-1.079v.118h-.6v2.653h.6v1.227L230.78,29a3.527,3.527,0,0,1,.966,1.353V26.326h6.189v6.19h-6.028a3.531,3.531,0,0,1-.4.995l-2.415,4.006v3.842H222.9V40.2a3.5,3.5,0,0,1-.9-4.627l1.842-3.054H222.9v-.762h-.521l-1.119,2.407-.744,7.083a3.518,3.518,0,0,1-1.908,2.767h1.64v4.663a1.326,1.326,0,0,0,2.653,0V44.011h6.189v4.663a1.326,1.326,0,0,0,2.653,0V44.011h6.189v4.663a1.326,1.326,0,0,0,2.653,0V1.326A1.326,1.326,0,0,0,239.263,0Zm-1.326,14.831h-6.189V8.642h6.189Zm0,26.527h-6.189v-6.19h6.189Z" transform="translate(-143.144 0)"/>
        <path id="XMLID_197_" class="cls-3" d="M131.744,97.324l1.718-3.7h2.521l2.416,2.069-2.671,4.43a1.768,1.768,0,1,0,3.029,1.825l3.444-5.712a1.769,1.769,0,0,0-.364-2.256l-2.9-2.484V83.485l1.4,1.4a1.769,1.769,0,0,0,.878.479l5.435,1.18a1.768,1.768,0,0,0,.749-3.456l-4.925-1.069-4.643-4.659c-.01-.01-.024-.013-.035-.022a3.239,3.239,0,0,0-2.166-.847H133.4a3.281,3.281,0,0,0-1.2.234l-4.373-1.073-3.746-4.277a1.769,1.769,0,1,0-2.661,2.33l4.114,4.7a1.763,1.763,0,0,0,.909.553l3.654.9V92.483L128.413,96.1a1.763,1.763,0,0,0-.155.56l-.807,7.669a1.769,1.769,0,1,0,3.518.37Z" transform="translate(-55.352 -63.641)"/>
        <path id="XMLID_198_" class="cls-3" d="M217.47,34.921a4.237,4.237,0,1,0-4.238-4.237A4.238,4.238,0,0,0,217.47,34.921Z" transform="translate(-138.307 -23.781)"/>
      </g>
    </g>
    <g id="Group_19" data-name="Group 19" transform="translate(-516 -385)">
      <circle id="Ellipse_1-6" data-name="Ellipse 1" class="cls-2" cx="40" cy="40" r="40" transform="translate(1214 700)"/>
      <g id="slide" transform="translate(1229 701.764)">
        <path id="XMLID_312_" class="cls-3" d="M178.163,20.526a3.226,3.226,0,1,0-2.054-4.073A3.226,3.226,0,0,0,178.163,20.526Z" transform="translate(-158.147)"/>
        <path id="XMLID_306_" class="cls-3" d="M48.349,115.732c-.823-.034-1.631-.057-2.423-.08-9.487-.277-15.754-.46-22.082-15.534-.312-.744-.654-1.436-1.008-2.1a1.714,1.714,0,0,0,1.211-2.069l-1.436-5.719a1.719,1.719,0,0,0-1.13-1.215l-2.86-.943,1.847-5.606s7.891.392,7.92.392a1.72,1.72,0,0,0,.083-3.438l-8.885-.441a2.538,2.538,0,0,0-.59-.292,2.57,2.57,0,0,0-3.131,1.354c-.174.37-2.781,8.547-2.767,8.724A24.088,24.088,0,0,0,1.507,86.742,1.754,1.754,0,0,0,.015,88.658c0,.013-.015,28.235-.015,28.792a1.72,1.72,0,0,0,3.441,0v-2.159h7.2v2.159a1.72,1.72,0,1,0,3.441,0V93.186a18.083,18.083,0,0,1,6.586,8.264c7.185,17.117,15.512,17.36,25.154,17.641.779.023,2.432.08,2.455.08a1.72,1.72,0,0,0,.068-3.439Zm-37.7-12.483h-7.2V98.087h7.2v5.161Zm-7.2,8.6v-5.161h7.2v5.161Zm7.2-17.2h-7.2V90.082a20.3,20.3,0,0,1,7.2,1.331v3.233Zm6.527-3.43,2.332.769.468,1.863A19.958,19.958,0,0,0,17.172,91.217Z" transform="translate(0 -57.815)"/>
      </g>
    </g>
    <g id="Group_22" data-name="Group 22" transform="translate(-972 -37)">
      <circle id="Ellipse_3" data-name="Ellipse 3" class="cls-2" cx="40" cy="40" r="40" transform="translate(1670 586)"/>
      <g id="balloon-playing" transform="translate(1671.375 601)">
        <path id="XMLID_139_" class="cls-3" d="M90.594,218.6a3.112,3.112,0,1,0-3.112-3.112A3.113,3.113,0,0,0,90.594,218.6Z" transform="translate(-64.66 -191.111)"/>
        <path id="XMLID_138_" class="cls-3" d="M43.563,237.355a1.272,1.272,0,1,0,0-2.544c-.6,0-1.532.963-2.849.344a.333.333,0,0,0-.435.46A3.508,3.508,0,0,0,43.563,237.355Z" transform="translate(-22.149 -211.294)"/>
        <path id="XMLID_137_" class="cls-3" d="M61.91,32.35l-4.576-3.013a2.406,2.406,0,0,0-1.488-.522H54.21a2.4,2.4,0,0,0-1.458.5l-2.716-1.137-.874-3.687a1.294,1.294,0,0,0-1.563-.964,1.274,1.274,0,0,0-.887.8c-3.378-.985-3.918-3.418-4.366-5.6a5.932,5.932,0,0,0-2.28-4.184c-.016-.137-.031-.275-.047-.41-.2-1.705-.388-3.316.4-4.777C41.1,8.078,41.883,7.385,42.74,7.29a2.8,2.8,0,0,1,1.953.691l-.519.275A.607.607,0,0,0,44.1,9.282l.967.708a.606.606,0,0,0,.956-.381l.24-1.314c1.546.686,3.689-.1,5.053-1.965,1.517-2.07,1.49-4.668-.059-5.8s-4.033-.376-5.55,1.694a4.67,4.67,0,0,0-.638,5,3.521,3.521,0,0,0-2.414-.764c-1.148.126-2.147.964-2.97,2.493a8.16,8.16,0,0,0-.522,5.008,3.556,3.556,0,0,0-1.062-.325,3.707,3.707,0,0,0-2.339.524c.951-1.3.794-3.449-.505-5.222-1.517-2.07-4-2.828-5.55-1.694s-1.576,3.733-.059,5.8c1.365,1.864,3.507,2.65,5.053,1.964l.24,1.315a.606.606,0,0,0,.955.38L36.862,16a.607.607,0,0,0-.075-1.026l-.4-.21a2.841,2.841,0,0,1,1.608-.3,2.936,2.936,0,0,1,1.279.526c.284,2.727.152,5.294-4.563,7.417a1.28,1.28,0,0,0-.695-.818,1.3,1.3,0,0,0-1.72.646l-1.882,4.148-2.66,2.594a2.417,2.417,0,0,0-1.006-.224H25.115a2.413,2.413,0,0,0-.927.185L20.6,28.225l-2.787-2.614a1.3,1.3,0,0,0-1.777,1.895l3.059,2.868a1.3,1.3,0,0,0,.635.327l2.957.586v4.934l-1.15,4.545a.455.455,0,0,0,.441.567h.709v7.305a1.3,1.3,0,1,0,2.6,0V41.333h1.3v7.305a1.3,1.3,0,1,0,2.6,0V41.333h.712a.455.455,0,0,0,.441-.567l-1.154-4.555v-5l3.225-3.147a1.294,1.294,0,0,0,.276-.392l1.971-4.342c5.058-2.148,5.673-4.913,5.522-7.561a5.294,5.294,0,0,1,1.355,3.113c.456,2.225,1.077,5.226,5.131,6.309l1,4.221a1.3,1.3,0,0,0,.762.9l3.358,1.4v4.231s0,0,0,0V48.7a1.3,1.3,0,1,0,2.6,0V41.4h1.3V48.7a1.3,1.3,0,1,0,2.6,0V33.065l1.55,1.021-.338,3.36a1.3,1.3,0,1,0,2.585.26l.416-4.143A1.3,1.3,0,0,0,61.91,32.35Z" transform="translate(0 0)"/>
        <path id="XMLID_136_" class="cls-3" d="M381.1,219.23a3.112,3.112,0,1,0-3.112-3.112A3.113,3.113,0,0,0,381.1,219.23Z" transform="translate(-326.067 -191.674)"/>
      </g>
    </g>
    <g id="Group_21" data-name="Group 21" transform="translate(-1110 116)">
      <circle id="Ellipse_2" data-name="Ellipse 2" class="cls-2" cx="40" cy="40" r="40" transform="translate(1645 435)"/>
      <g id="beach-playing" transform="translate(1655 331.149)">
        <path id="XMLID_54_" class="cls-3" d="M41.94,215.354A9.348,9.348,0,0,0,39.7,217.3,1.939,1.939,0,0,1,36.588,215c-2.948-.135-5.365-.157-6.588-.157-.458,0-1.085,0-1.842.013,0,.168-.025.336-.044.505l.19.184,5.443,1.025A3.991,3.991,0,0,1,36.708,219c10.557.5,16.955,2.123,18.874,3.255-5.93,3.446-24.769,3.587-31.668,3.29,0-.018.011-.034.015-.053l.828-4.392a2.468,2.468,0,0,0,1.167.586l1.009.19,5.615,1.058a2.478,2.478,0,1,0,.918-4.871l-5.893-1.11-1.73-1.677a3.7,3.7,0,0,0-7.189-1.691c-.181.578-1.919,9.935-2.031,10.53a3.664,3.664,0,0,0-.049.885c-2.969-.323-9.271-1.222-11.916-2.615-.085-.044-.167-.088-.239-.13,1.36-.8,4.977-1.847,10.717-2.57l.777-4.127c-7.873.85-15.912,2.7-15.912,6.7,0,6.8,23.207,7.417,30,7.417,5.01,0,30-.357,30-7.417C60,217.893,50.426,216.092,41.94,215.354Z" transform="translate(0 -71.309)"/>
        <path id="XMLID_53_" class="cls-3" d="M172.67,139.065a4.646,4.646,0,1,0-3.7-5.427A4.668,4.668,0,0,0,172.67,139.065Z" transform="translate(-148.413 0)"/>
        <path id="XMLID_52_" class="cls-3" d="M311.738,213.928a.454.454,0,0,0,.072.6.447.447,0,0,0,.633-.047c2.75-3.178,5.366-3.624,8.9-3.521h.04a1.024,1.024,0,0,0,.04-2.047A11.3,11.3,0,0,0,311.738,213.928Z" transform="translate(-273.878 -69.473)"/>
        <path id="XMLID_51_" class="cls-3" d="M280.931,165.016a.279.279,0,0,0,.235-.319,6.125,6.125,0,0,1,1.954-5.657.641.641,0,0,0-.939-.872,7.078,7.078,0,0,0-1.565,6.638A.284.284,0,0,0,280.931,165.016Z" transform="translate(-246.386 -24.704)"/>
        <path id="XMLID_50_" class="cls-3" d="M321.7,137.194a1.5,1.5,0,0,0-1.775-1.17,16.561,16.561,0,0,0-11.691,9.7.727.727,0,0,0,.419.973l.013,0a.729.729,0,0,0,.862-.285c2.634-4.036,6.115-6.946,10.856-7.428A1.5,1.5,0,0,0,321.7,137.194Z" transform="translate(-270.815 -5.397)"/>
      </g>
    </g>
    <text id="Casa_Favorită" data-name="Casa Favorită" class="cls-4" transform="translate(474 194)"><tspan x="0" y="0">Casa Favorită</tspan></text>
    <g id="dancer-with-music" transform="translate(999.297 422.954)">
      <g id="Group_23" data-name="Group 23" transform="translate(0 16.046)">
        <path id="Path_29" data-name="Path 29" class="cls-5" d="M175.864,32.507a3.32,3.32,0,0,0-3.551,3.022,3.609,3.609,0,0,0,7.1.139A18.889,18.889,0,0,0,180.5,25.21a2.957,2.957,0,0,0-2.818-2.259l-8.352,0a2.47,2.47,0,0,0-1.759.729,2.664,2.664,0,0,0-.764,1.909,37.645,37.645,0,0,1-.827,6.739,4.162,4.162,0,0,0-1.035-.131,3.32,3.32,0,0,0-3.551,3.023,3.321,3.321,0,0,0,3.551,3.022,3.4,3.4,0,0,0,3.524-2.648l.027.007a53.421,53.421,0,0,0,1.464-9.494l7.5,0a15.029,15.029,0,0,1-.4,6.576A4.234,4.234,0,0,0,175.864,32.507Z" transform="translate(-103.471 -20.47)"/>
        <path id="Path_30" data-name="Path 30" class="cls-5" d="M17.591,112.946a3.321,3.321,0,0,0,4.511,1.183,3.343,3.343,0,0,0,1.943-4.134,18.9,18.9,0,0,0-3.552-9.9,2.96,2.96,0,0,0-3.52-.813L9.447,102.9a2.458,2.458,0,0,0-1.268,1.421,2.663,2.663,0,0,0,.141,2.052,37.512,37.512,0,0,1,2.175,6.432,4.057,4.057,0,0,0-.988.332A3.318,3.318,0,0,0,7.621,117.4a3.319,3.319,0,0,0,4.511,1.183,3.4,3.4,0,0,0,2.025-3.914l.028-.005a53.406,53.406,0,0,0-2.8-9.191l6.758-3.249a15.027,15.027,0,0,1,2.489,6.1,4.134,4.134,0,0,0-1.151.357A3.317,3.317,0,0,0,17.591,112.946Z" transform="translate(-4.72 -69.237)"/>
        <ellipse id="Ellipse_4" data-name="Ellipse 4" class="cls-5" cx="7.538" cy="7.538" rx="7.538" ry="7.538" transform="translate(32.143 0.39)"/>
        <path id="Path_31" data-name="Path 31" class="cls-5" d="M5.145,93.863H84.188a5.034,5.034,0,1,0,0-10.065H60.048a2.55,2.55,0,0,0,.422-.181,2.5,2.5,0,0,0,.846-3.435L47.22,56.847V45.323c6.417,5.792,9.519,15.068,9.574,15.238a2.505,2.505,0,0,0,2.382,1.732,2.5,2.5,0,0,0,2.38-3.269c-.211-.649-4.544-13.732-14.345-19.989a6.249,6.249,0,0,0-6.247-6.179H38.395a6.217,6.217,0,0,0-4.25,1.69c-7.7-5.5-11.409-16.579-11.471-16.767a2.5,2.5,0,0,0-4.761,1.539c.209.646,4.509,13.631,14.227,19.919V59.259l-4.848,8.505a2.5,2.5,0,0,0-.106,2.268L32.814,82.5A2.464,2.464,0,0,0,34.22,83.8H5.145a5.034,5.034,0,1,0,0,10.065ZM32.27,69.135l4.774-8.375h6.692l13.3,22.009A2.473,2.473,0,0,0,58.3,83.8H35.99c.043-.017.089-.023.132-.042a2.5,2.5,0,0,0,1.252-3.31Z" transform="translate(0 -16.046)"/>
      </g>
    </g>
    <g id="dance" transform="translate(1018.922 561.712)">
      <g id="Group_25" data-name="Group 25" transform="translate(0.097 9.2)">
        <g id="Group_24" data-name="Group 24">
          <path id="Path_32" data-name="Path 32" class="cls-2" d="M27.177,84.376a2.93,2.93,0,0,0,.523-2.4,2.577,2.577,0,0,0-1.423-1.847,2.19,2.19,0,0,0-2.58.682L18.3,87.22a5.673,5.673,0,0,0-3.152-6.993,4.909,4.909,0,0,0-6.331,3.481,5.849,5.849,0,0,0,1.875,6.282h-.135a3.593,3.593,0,0,0-3.042,1.358.916.916,0,0,0-.094.132L.709,102.838a3.369,3.369,0,0,0-.36,2.471,2.974,2.974,0,0,0,1.362,1.907,2.469,2.469,0,0,0,3.447-1.087l3.4-6.165v6.592L5.617,122.548a3.007,3.007,0,0,0,.472,2.326,2.134,2.134,0,0,0,1.725.922,3.055,3.055,0,0,0,2.85-2.644l2.247-12.821h2.742L18.2,123.709a2.893,2.893,0,0,0,1.165,1.862,2.266,2.266,0,0,0,1.294.41,2.4,2.4,0,0,0,.669-.1,2.9,2.9,0,0,0,1.846-3.393l-2.957-15.936V93.278Zm-16.953,1.1a3.526,3.526,0,0,1,3.335-3.683,3.7,3.7,0,0,1,0,7.366A3.522,3.522,0,0,1,10.224,85.471Zm8.347,21.361,2.975,16.034a1.063,1.063,0,0,1-.674,1.246.728.728,0,0,1-.624-.107,1.027,1.027,0,0,1-.412-.673L17.145,109.22a.858.858,0,0,0-.816-.731H12.223a.86.86,0,0,0-.819.746L9.026,122.806a1.42,1.42,0,0,1-1.194,1.149.531.531,0,0,1-.442-.233,1.048,1.048,0,0,1-.14-.8l2.963-16.09a1.02,1.02,0,0,0,.017-.183V96.683a.881.881,0,0,0-.833-.921.82.82,0,0,0-.712.442L3.735,105.17a.9.9,0,0,1-1.252.413,1.133,1.133,0,0,1-.521-.741,1.363,1.363,0,0,1,.143-1L8.771,92.561a2,2,0,0,1,1.785-.729H16.33a.8.8,0,0,0,.611-.294l7.978-9.474a.631.631,0,0,1,.723-.234.79.79,0,0,1,.438.571.943.943,0,0,1-.163.772l-7.158,9.161a.979.979,0,0,0-.2.6v13.713A.988.988,0,0,0,18.571,106.832Z" transform="translate(-0.257 -79.939)"/>
        </g>
      </g>
      <g id="Group_27" data-name="Group 27" transform="translate(22.567 9.2)">
        <g id="Group_26" data-name="Group 26">
          <path id="Path_33" data-name="Path 33" class="cls-2" d="M242.816,84.376a2.93,2.93,0,0,0,.523-2.4,2.577,2.577,0,0,0-1.423-1.847,2.195,2.195,0,0,0-2.579.682l-5.4,6.412a5.673,5.673,0,0,0-3.151-6.993,4.909,4.909,0,0,0-6.332,3.48,5.849,5.849,0,0,0,1.875,6.283h-.135a3.593,3.593,0,0,0-3.042,1.358.914.914,0,0,0-.094.132l-6.709,11.357a3.372,3.372,0,0,0-.36,2.471,2.974,2.974,0,0,0,1.362,1.908,2.47,2.47,0,0,0,3.447-1.088l3.4-6.166v5.676l-2.944,16.908a3.006,3.006,0,0,0,.472,2.327,2.134,2.134,0,0,0,1.725.922,3.056,3.056,0,0,0,2.85-2.644l2.248-12.821h2.742l2.55,13.378a2.894,2.894,0,0,0,1.165,1.861,2.264,2.264,0,0,0,1.294.41,2.4,2.4,0,0,0,.669-.1,2.9,2.9,0,0,0,1.848-3.383l-2.958-16.862V93.278Zm-16.953,1.1a3.351,3.351,0,1,1,3.335,3.683A3.526,3.526,0,0,1,225.863,85.472Zm8.346,20.431,2.977,16.964a1.063,1.063,0,0,1-.673,1.246.728.728,0,0,1-.625-.107,1.027,1.027,0,0,1-.412-.673l-2.69-14.113a.858.858,0,0,0-.816-.731h-4.106a.86.86,0,0,0-.819.746l-2.379,13.571a1.411,1.411,0,0,1-1.194,1.149.531.531,0,0,1-.442-.233,1.057,1.057,0,0,1-.138-.81l2.962-17.011a1,1,0,0,0,.015-.174V96.683a.881.881,0,0,0-.833-.921.82.82,0,0,0-.712.442l-4.948,8.966a.9.9,0,0,1-1.252.414,1.136,1.136,0,0,1-.521-.741,1.363,1.363,0,0,1,.143-1l6.666-11.283a2,2,0,0,1,1.784-.729h5.774a.8.8,0,0,0,.611-.294l7.978-9.474a.63.63,0,0,1,.722-.234.79.79,0,0,1,.438.571.943.943,0,0,1-.163.772L234.4,92.334a.979.979,0,0,0-.2.6v12.792A1.039,1.039,0,0,0,234.208,105.9Z" transform="translate(-215.896 -79.94)"/>
        </g>
      </g>
      <g id="Group_29" data-name="Group 29" transform="translate(0.078)">
        <g id="Group_28" data-name="Group 28">
          <path id="Path_34" data-name="Path 34" class="cls-2" d="M12.583,0H5.914A.88.88,0,0,0,5.08.921V7.738a3.889,3.889,0,0,0-1.667-.372c-1.87,0-3.335,1.213-3.335,2.762S1.543,12.89,3.413,12.89s3.335-1.213,3.335-2.762v-4.6h5.836a.88.88,0,0,0,.834-.921V.921A.88.88,0,0,0,12.583,0ZM3.413,11.049c-1.018,0-1.667-.545-1.667-.921s.65-.921,1.667-.921,1.665.543,1.667.919v0h0C5.08,10.5,4.43,11.049,3.413,11.049Zm8.336-7.366h-5V1.841h5Z" transform="translate(-0.078 0)"/>
        </g>
      </g>
    </g>
    <text id="aici_e_pretrecerea_mea" data-name="aici e pretrecerea mea" class="cls-6" transform="translate(595 247)"><tspan x="0" y="0">aici e pretrecerea mea</tspan></text>
  </g>
</svg>
